<?xml version="1.0" encoding="UTF-8"?>
<svg xmlns="http://www.w3.org/2000/svg" width="796" height="200" viewBox="0 0 199 50">
	<path fill="#de2922" d="M199 0H0v50h199z"/>
	<g fill="#fff">
		<path d="M178.496 17.488c-2.779 0-4.852 1.466-6.593 3.142h-.167l-.414-2.639h-4.976v20.78h6.096V24.736c1.327-1.299 2.28-2.012 3.815-2.012 1.741 0 2.528.922 2.528 3.939V38.77h6.097V25.867c0-5.196-1.908-8.38-6.386-8.38"/>
		<path d="M154.444 17.488c-4.934 0-9.703 4.147-9.703 10.893 0 6.871 4.52 10.892 10.407 10.892 2.447 0 5.185-.879 7.3-2.346l-2.032-3.73c-1.493.924-2.903 1.383-4.438 1.383-2.736 0-4.81-1.382-5.349-4.523h12.316c.125-.503.25-1.509.25-2.597 0-5.657-2.903-9.972-8.75-9.972zm-3.857 8.756c.415-2.765 2.074-4.065 3.981-4.065 2.447 0 3.443 1.676 3.443 4.065z"/>
		<path d="M137.592 26.328c-2.115-.795-4.023-1.3-4.023-2.64 0-1.047.747-1.634 2.323-1.634 1.45 0 2.86.67 4.352 1.76l2.738-3.687c-1.782-1.34-4.104-2.64-7.256-2.64-4.77 0-7.88 2.64-7.88 6.494 0 3.436 2.945 5.153 5.433 6.117 2.114.838 4.188 1.467 4.188 2.849 0 1.09-.788 1.76-2.612 1.76-1.742 0-3.441-.754-5.308-2.178l-2.737 3.853c2.073 1.718 5.184 2.891 7.879 2.891 5.516 0 8.46-2.93 8.46-6.702 0-3.814-2.944-5.28-5.557-6.243"/>
		<path d="M106.372 17.488c-4.933 0-9.703 4.147-9.703 10.893 0 6.871 4.52 10.892 10.409 10.892 2.448 0 5.183-.879 7.299-2.346l-2.032-3.73c-1.492.924-2.903 1.383-4.438 1.383-2.737 0-4.811-1.382-5.349-4.523h12.316c.124-.503.25-1.509.25-2.597 0-5.657-2.904-9.972-8.752-9.972zm-3.856 8.756c.415-2.765 2.074-4.065 3.98-4.065 2.448 0 3.444 1.676 3.444 4.065z"/>
		<path d="M87.388 17.488c-2.779 0-4.851 1.466-6.593 3.142h-.166l-.415-2.639h-4.976v20.78h6.097V24.736c1.327-1.299 2.28-2.012 3.814-2.012 1.743 0 2.53.922 2.53 3.939V38.77h6.095V25.867c0-5.196-1.907-8.38-6.386-8.38"/>
		<path d="M64.54 21.635h-.167l-.415-3.644h-4.976v20.78h6.097V26.705c1.078-2.806 2.985-3.813 4.52-3.813.687 0 1.279.066 2.081.285l1.037-5.307c-.58-.25-1.31-.383-2.33-.383-2.115 0-4.355 1.34-5.848 4.148"/>
		<path d="M121.206 9.402h-3.048v29.304h6.096V9.402z"/>
		<path d="M45.54 17.488c-6.246 0-10.43 4.416-10.43 10.854 0 6.353 4.393 11.02 10.43 11.02 6.33 0 10.43-4.417 10.43-11.02 0-6.228-4.393-10.854-10.43-10.854m0 16.858c-2.915 0-4.507-2.22-4.507-6.006 0-3.701 1.634-5.878 4.507-5.878 2.873 0 4.507 2.092 4.507 5.88 0 3.743-1.592 6.004-4.507 6.004"/>
		<path d="M24.096 15.007c2.55 0 4.883 1 6.651 3.223l3.801-3.582c-2.602-3.524-6.08-5.246-10.608-5.246-7.522 0-13.614 6.415-13.614 15.065 0 8.465 6.033 14.896 13.303 14.896 4.547 0 7.9-1.616 10.692-5.189l-3.43-3.713c-1.438 1.773-3.568 3.296-6.795 3.296-3.993 0-7.542-4.018-7.542-9.374 0-5.423 3.549-9.376 7.542-9.376"/>
	</g>
</svg>
