<?xml version="1.0" encoding="UTF-8"?><svg id="Capa_1" xmlns="http://www.w3.org/2000/svg" viewBox="0 0 493.36 129.87"><defs><style>.cls-1{fill:#003278;}.cls-1,.cls-2{stroke-width:0px;}.cls-2{fill:#004177;opacity:.7;}</style></defs><path class="cls-2" d="M54.52,112.6c-.64-.45-1.35-.78-2.1-.98l-2.65,9.9c.9.24,1.76.64,2.54,1.19l8.03,5.69c1.38.98,2.98,1.46,4.6,1.46v-11.36c-1.33,0-2.65-.4-3.79-1.21l-6.62-4.7ZM35.47,108.38l-3.39-7.38c-.33-.71-.78-1.35-1.32-1.9l-7.25,7.25c.66.66,1.21,1.44,1.6,2.3l4.1,8.94c.7,1.53,1.85,2.76,3.25,3.57l5.68-9.84c-1.15-.66-2.1-1.68-2.68-2.94M87.83,112.17l-8.08-.76c-.78-.07-1.56,0-2.31.2l2.65,9.9c.9-.24,1.85-.32,2.8-.24l9.8.92c1.68.16,3.32-.23,4.71-1.03l-5.68-9.84c-1.15.66-2.5.98-3.89.85M30.76,30.76l-7.25-7.25c-.66.66-1.44,1.21-2.3,1.6l-8.94,4.1c-1.53.7-2.76,1.85-3.57,3.25l9.84,5.68c.66-1.15,1.68-2.1,2.94-2.68l7.38-3.39c.71-.33,1.35-.78,1.9-1.32M108.38,94.4l-7.38,3.39c-.71.33-1.35.78-1.9,1.32l7.25,7.25c.66-.66,1.44-1.21,2.3-1.6l8.94-4.1c1.53-.7,2.76-1.85,3.57-3.25l-9.84-5.68c-.66,1.15-1.68,2.1-2.94,2.68M52.43,18.25l-2.65-9.9c-.9.24-1.85.32-2.79.24l-9.8-.92c-1.68-.16-3.32.23-4.71,1.03l5.68,9.84c1.15-.66,2.5-.98,3.89-.85l8.08.76c.78.07,1.56,0,2.31-.2M12.57,61.14l4.7-6.62c.45-.64.78-1.35.99-2.09l-9.9-2.65c-.24.9-.64,1.76-1.19,2.54l-5.69,8.03C.49,61.71,0,63.32,0,64.93h11.36c0-1.33.4-2.65,1.21-3.79M17.69,87.83l.76-8.08c.07-.78,0-1.56-.19-2.31l-9.9,2.65c.24.9.32,1.85.24,2.8l-.92,9.8c-.16,1.68.23,3.32,1.03,4.71l9.84-5.68c-.66-1.15-.98-2.5-.85-3.89M118.5,64.93c0,1.33-.4,2.66-1.21,3.79l-4.7,6.62c-.45.64-.79,1.35-.98,2.09l9.9,2.65c.24-.9.64-1.76,1.19-2.54l5.69-8.03c.98-1.38,1.46-2.98,1.46-4.6h-11.36ZM80.09,8.35c-.9-.24-1.76-.64-2.54-1.19l-8.03-5.69c-1.38-.98-2.99-1.46-4.6-1.46v11.36c1.33,0,2.65.4,3.79,1.21l6.62,4.7c.64.45,1.35.79,2.1.98l2.65-9.9ZM104.75,21.21l-4.1-8.94c-.7-1.53-1.85-2.76-3.25-3.57l-5.68,9.84c1.15.66,2.1,1.68,2.68,2.94l3.39,7.38c.33.71.78,1.35,1.32,1.9l7.25-7.25c-.66-.66-1.21-1.44-1.6-2.3M112.18,42.03l-.76,8.08c-.07.78,0,1.56.2,2.31l9.9-2.65c-.24-.9-.33-1.85-.24-2.8l.92-9.8c.16-1.68-.23-3.32-1.03-4.71l-9.84,5.68c.66,1.15.98,2.5.85,3.89"/><path class="cls-1" d="M68.72,117.29c-1.14.81-2.46,1.21-3.79,1.21v11.36c1.61,0,3.22-.49,4.59-1.46l8.03-5.69c.78-.55,1.64-.95,2.54-1.19l-2.65-9.9c-.74.2-1.46.53-2.1.99l-6.62,4.7ZM91.72,111.33l5.68,9.84c1.39-.8,2.54-2.03,3.25-3.57l4.11-8.94c.4-.86.94-1.64,1.6-2.3l-7.25-7.25c-.55.55-1,1.19-1.32,1.9l-3.39,7.38c-.58,1.26-1.53,2.28-2.68,2.94M38.15,111.33l-5.68,9.84c1.39.81,3.03,1.19,4.71,1.03l9.8-.92c.95-.09,1.89,0,2.8.24l2.65-9.9c-.75-.2-1.53-.27-2.31-.19l-8.08.76c-1.39.13-2.74-.18-3.89-.85M101,32.08l7.38,3.39c1.26.58,2.28,1.53,2.94,2.68l9.84-5.68c-.8-1.39-2.03-2.54-3.57-3.25l-8.94-4.11c-.86-.4-1.64-.94-2.3-1.6l-7.25,7.25c.54.55,1.19.99,1.9,1.32M18.54,91.72l-9.84,5.68c.8,1.39,2.03,2.54,3.57,3.25l8.94,4.11c.86.4,1.64.94,2.3,1.6l7.25-7.25c-.55-.54-1.19-.99-1.9-1.32l-7.38-3.39c-1.26-.58-2.28-1.53-2.94-2.68M79.75,18.45l8.08-.76c1.39-.13,2.74.19,3.89.85l5.68-9.84c-1.39-.8-3.03-1.19-4.71-1.03l-9.8.92c-.95.09-1.89,0-2.8-.24l-2.65,9.9c.75.2,1.52.27,2.31.2M118.5,64.93h11.36c0-1.61-.49-3.22-1.46-4.6l-5.69-8.03c-.55-.77-.95-1.64-1.19-2.54l-9.9,2.65c.2.74.53,1.46.98,2.09l4.7,6.62c.81,1.14,1.21,2.46,1.21,3.79M111.33,91.72l9.84,5.68c.81-1.39,1.19-3.03,1.03-4.71l-.92-9.8c-.09-.95,0-1.89.24-2.8l-9.9-2.65c-.2.75-.27,1.53-.2,2.31l.76,8.08c.13,1.39-.19,2.74-.85,3.89M0,64.93c0,1.61.49,3.22,1.46,4.6l5.69,8.03c.55.78.95,1.64,1.19,2.54l9.9-2.65c-.2-.75-.53-1.46-.98-2.09l-4.7-6.62c-.81-1.13-1.21-2.46-1.21-3.79H0ZM52.43,18.25c.74-.2,1.46-.53,2.09-.98l6.62-4.7c1.14-.81,2.46-1.21,3.79-1.21V0C63.32,0,61.71.49,60.34,1.46l-8.03,5.69c-.78.55-1.64.95-2.54,1.19l2.65,9.9ZM23.51,23.51l7.25,7.25c.55-.55,1-1.19,1.32-1.9l3.39-7.38c.58-1.27,1.53-2.28,2.68-2.94l-5.68-9.84c-1.39.8-2.54,2.03-3.25,3.57l-4.11,8.94c-.4.86-.94,1.64-1.6,2.3M18.54,38.15l-9.84-5.68c-.81,1.39-1.19,3.03-1.03,4.71l.92,9.8c.09.95,0,1.89-.24,2.8l9.9,2.65c.2-.75.27-1.53.2-2.31l-.76-8.08c-.13-1.39.19-2.74.85-3.89"/><path class="cls-1" d="M95.87,67.17l-2.77,3.91c-.54.76-.78,1.68-.7,2.6l.45,4.78c.15,1.64-.74,3.19-2.24,3.88l-4.36,2c-.84.39-1.52,1.06-1.9,1.9l-2,4.36c-.69,1.49-2.24,2.39-3.88,2.24l-4.78-.45c-.92-.09-1.85.16-2.6.7l-3.91,2.77c-1.34.95-3.14.95-4.48,0l-3.91-2.77c-.76-.54-1.68-.78-2.6-.7l-4.78.45c-1.64.15-3.19-.74-3.88-2.24l-2-4.36c-.39-.84-1.06-1.52-1.9-1.9l-4.36-2c-1.5-.69-2.39-2.24-2.24-3.88l.45-4.78c.09-.92-.16-1.85-.7-2.6l-2.77-3.91c-.95-1.34-.95-3.14,0-4.48l2.77-3.91c.54-.76.78-1.68.7-2.6l-.45-4.78c-.15-1.64.74-3.19,2.24-3.88l4.36-2c.84-.39,1.52-1.06,1.9-1.9l2-4.36c.69-1.49,2.24-2.39,3.88-2.24l4.78.45c.92.09,1.85-.16,2.6-.7l3.91-2.77c1.34-.95,3.14-.95,4.48,0l3.91,2.77c.76.54,1.68.78,2.6.7l4.78-.45c1.64-.15,3.19.74,3.88,2.24l2,4.36c.39.84,1.06,1.52,1.9,1.9l4.36,2c1.49.69,2.39,2.24,2.24,3.88l-.45,4.78c-.09.92.16,1.85.7,2.6l2.77,3.91c.95,1.34.95,3.14,0,4.48M106.19,61.95l-3.7-5.22c-.71-1.01-1.04-2.24-.93-3.47l.6-6.37c.2-2.18-.99-4.26-2.99-5.17l-5.81-2.67c-1.12-.52-2.02-1.42-2.54-2.54l-2.67-5.81c-.92-1.99-2.99-3.19-5.17-2.99l-6.37.6c-1.23.12-2.46-.21-3.47-.93l-5.22-3.7c-1.79-1.27-4.18-1.27-5.97,0l-5.22,3.7c-1.01.71-2.24,1.04-3.47.93l-6.37-.6c-2.18-.2-4.26.99-5.17,2.99l-2.67,5.81c-.52,1.12-1.42,2.02-2.54,2.54l-5.81,2.67c-1.99.92-3.19,2.99-2.99,5.17l.6,6.37c.11,1.23-.21,2.46-.93,3.47l-3.7,5.22c-1.27,1.79-1.27,4.19,0,5.97l3.7,5.22c.71,1.01,1.04,2.24.93,3.47l-.6,6.37c-.2,2.18.99,4.26,2.99,5.17l5.81,2.67c1.12.52,2.02,1.42,2.54,2.54l2.67,5.81c.92,1.99,2.99,3.19,5.17,2.99l6.37-.6c1.23-.11,2.46.22,3.47.93l5.22,3.7c1.79,1.27,4.18,1.27,5.97,0l5.22-3.7c1.01-.71,2.24-1.04,3.47-.93l6.37.6c2.18.2,4.26-.99,5.17-2.99l2.67-5.81c.52-1.12,1.42-2.02,2.54-2.54l5.81-2.67c1.99-.92,3.19-2.99,2.99-5.17l-.6-6.37c-.12-1.23.21-2.46.93-3.47l3.7-5.22c1.27-1.79,1.27-4.19,0-5.97"/><path class="cls-1" d="M161.26,84.37l-12.04-38.59h7.26l5.43,19.41c.63,2.2,1.19,4.29,1.68,6.25.49,1.97,1.07,4.07,1.74,6.31h.24c.67-2.24,1.25-4.35,1.74-6.31.49-1.97,1.03-4.05,1.62-6.25l5.37-19.41h7.02l-11.98,38.59h-8.08Z"/><path class="cls-1" d="M187.34,50.33c-1.22,0-2.22-.35-3.01-1.06-.79-.71-1.18-1.63-1.18-2.77s.39-2.07,1.18-2.8c.79-.73,1.79-1.09,3.01-1.09s2.22.36,3.01,1.09c.79.73,1.18,1.66,1.18,2.8s-.39,2.07-1.18,2.77c-.79.71-1.79,1.06-3.01,1.06ZM183.92,84.37v-28.97h6.79v28.97h-6.79Z"/><path class="cls-1" d="M205.99,85.08c-2.01,0-3.98-.38-5.93-1.15-1.95-.77-3.63-1.72-5.05-2.86l3.19-4.37c1.3,1.02,2.59,1.82,3.87,2.39,1.28.57,2.66.86,4.16.86,1.57,0,2.73-.32,3.48-.97.75-.65,1.12-1.48,1.12-2.51,0-.59-.18-1.11-.53-1.56-.35-.45-.83-.86-1.42-1.21-.59-.35-1.26-.68-2.01-.97-.75-.29-1.5-.6-2.24-.91-.94-.35-1.91-.77-2.89-1.24-.98-.47-1.86-1.04-2.63-1.71-.77-.67-1.4-1.45-1.89-2.33-.49-.89-.74-1.94-.74-3.16,0-2.56.94-4.64,2.83-6.25,1.89-1.61,4.46-2.42,7.73-2.42,2.01,0,3.82.35,5.43,1.06,1.61.71,3.01,1.51,4.19,2.42l-3.13,4.13c-1.02-.75-2.06-1.35-3.1-1.8-1.04-.45-2.13-.68-3.27-.68-1.46,0-2.53.31-3.22.91-.69.61-1.03,1.37-1.03,2.27,0,.59.17,1.09.5,1.5.33.41.78.78,1.33,1.09.55.31,1.19.61,1.92.88.73.28,1.48.55,2.27.83.98.35,1.97.76,2.95,1.21.98.45,1.88,1.01,2.68,1.68.81.67,1.46,1.49,1.95,2.45.49.96.74,2.12.74,3.45,0,1.26-.25,2.43-.74,3.51-.49,1.08-1.21,2.03-2.15,2.83-.94.81-2.12,1.45-3.54,1.92-1.42.47-3.03.71-4.84.71Z"/><path class="cls-1" d="M225.28,50.33c-1.22,0-2.22-.35-3.01-1.06-.79-.71-1.18-1.63-1.18-2.77s.39-2.07,1.18-2.8c.79-.73,1.79-1.09,3.01-1.09s2.22.36,3.01,1.09c.79.73,1.18,1.66,1.18,2.8s-.39,2.07-1.18,2.77c-.79.71-1.79,1.06-3.01,1.06ZM221.86,84.37v-28.97h6.79v28.97h-6.79Z"/><path class="cls-1" d="M246.05,85.08c-1.69,0-3.12-.26-4.28-.77-1.16-.51-2.1-1.23-2.83-2.15-.73-.92-1.26-2.03-1.59-3.3-.33-1.28-.5-2.7-.5-4.28v-13.81h-4.13v-5.07l4.48-.29.83-7.91h5.66v7.91h7.38v5.37h-7.38v13.81c0,3.38,1.36,5.07,4.07,5.07.51,0,1.03-.06,1.56-.18.53-.12,1.01-.28,1.45-.47l1.18,5.02c-.79.28-1.68.52-2.68.74-1,.22-2.08.32-3.22.32Z"/><path class="cls-1" d="M261.57,84.37l12.57-38.59h8.03l12.57,38.59h-7.2l-3.01-10.44h-12.98l-3.01,10.44h-6.96ZM274.49,63.84l-1.36,4.72h9.85l-1.36-4.72c-.63-2.04-1.23-4.15-1.8-6.31-.57-2.16-1.13-4.31-1.68-6.43h-.24c-.55,2.16-1.1,4.32-1.65,6.46-.55,2.14-1.14,4.24-1.77,6.28Z"/><path class="cls-1" d="M297.45,84.37v-28.97h5.61l.47,5.13h.24c1.02-1.89,2.26-3.33,3.72-4.34,1.45-1,2.95-1.5,4.48-1.5,1.38,0,2.48.2,3.3.59l-1.18,5.9c-.51-.16-.98-.27-1.42-.35-.43-.08-.96-.12-1.59-.12-1.14,0-2.34.44-3.6,1.33-1.26.89-2.34,2.43-3.25,4.63v17.7h-6.79Z"/><path class="cls-1" d="M327.48,97.18c-1.73,0-3.33-.16-4.81-.47-1.48-.32-2.74-.79-3.81-1.42-1.06-.63-1.9-1.42-2.51-2.36-.61-.94-.91-2.05-.91-3.3s.35-2.35,1.06-3.39c.71-1.04,1.73-1.98,3.07-2.8v-.24c-.75-.47-1.37-1.1-1.86-1.89-.49-.79-.74-1.77-.74-2.95s.32-2.17.97-3.1c.65-.92,1.39-1.68,2.21-2.27v-.24c-.98-.75-1.86-1.78-2.63-3.1-.77-1.32-1.15-2.84-1.15-4.57s.31-3.13.94-4.43c.63-1.3,1.47-2.39,2.51-3.27,1.04-.89,2.25-1.55,3.63-2.01,1.38-.45,2.83-.68,4.37-.68.79,0,1.54.07,2.27.21.73.14,1.39.31,1.98.5h10.39v5.02h-5.31c.47.55.86,1.25,1.18,2.09.31.85.47,1.78.47,2.8,0,1.61-.29,3.03-.86,4.25-.57,1.22-1.35,2.24-2.33,3.07-.98.83-2.14,1.46-3.48,1.89-1.34.43-2.77.65-4.31.65-.63,0-1.28-.06-1.95-.18-.67-.12-1.34-.31-2.01-.59-.43.39-.78.79-1.03,1.18-.26.39-.38.92-.38,1.59,0,.83.34,1.48,1.03,1.95.69.47,1.92.71,3.69.71h5.13c3.5,0,6.15.56,7.94,1.68,1.79,1.12,2.69,2.94,2.69,5.46,0,1.42-.37,2.75-1.09,4.01-.73,1.26-1.76,2.34-3.1,3.25-1.34.9-2.96,1.62-4.87,2.15-1.91.53-4.04.8-6.4.8ZM328.55,92.75c2.36,0,4.26-.46,5.69-1.39,1.44-.92,2.15-2.02,2.15-3.27,0-1.14-.44-1.91-1.33-2.3-.89-.39-2.15-.59-3.81-.59h-3.95c-1.57,0-2.89-.14-3.95-.41-1.5,1.14-2.24,2.42-2.24,3.84,0,1.3.66,2.31,1.98,3.04,1.32.73,3.14,1.09,5.46,1.09ZM327.84,70.92c1.38,0,2.56-.5,3.54-1.5.98-1,1.48-2.45,1.48-4.34s-.48-3.22-1.45-4.22c-.96-1-2.15-1.5-3.57-1.5s-2.62.49-3.6,1.48-1.48,2.4-1.48,4.25.49,3.33,1.48,4.34c.98,1,2.18,1.5,3.6,1.5Z"/><path class="cls-1" d="M358.05,85.08c-2.01,0-3.88-.34-5.61-1.03-1.73-.69-3.25-1.68-4.54-2.98s-2.31-2.88-3.04-4.75c-.73-1.87-1.09-4-1.09-6.4s.37-4.48,1.12-6.37c.75-1.89,1.74-3.48,2.98-4.78s2.67-2.3,4.28-3.01c1.61-.71,3.26-1.06,4.96-1.06,1.97,0,3.7.33,5.19,1,1.49.67,2.74,1.61,3.75,2.83,1,1.22,1.76,2.68,2.27,4.37.51,1.69.77,3.54.77,5.55,0,.67-.03,1.3-.09,1.89-.06.59-.13,1.06-.21,1.42h-18.41c.31,2.6,1.23,4.59,2.74,5.99,1.51,1.4,3.45,2.09,5.81,2.09,1.26,0,2.43-.19,3.51-.56,1.08-.37,2.15-.89,3.22-1.56l2.3,4.25c-1.38.91-2.91,1.65-4.6,2.24-1.69.59-3.46.88-5.31.88ZM350.32,67.14h12.86c0-2.24-.48-4-1.45-5.28-.96-1.28-2.45-1.92-4.46-1.92-1.73,0-3.25.61-4.54,1.83-1.3,1.22-2.1,3.01-2.42,5.37Z"/><path class="cls-1" d="M374.1,84.37v-28.97h5.61l.47,3.89h.24c1.3-1.26,2.7-2.34,4.22-3.25,1.51-.9,3.28-1.36,5.28-1.36,3.11,0,5.37.99,6.79,2.98,1.42,1.99,2.12,4.83,2.12,8.53v18.17h-6.79v-17.29c0-2.4-.35-4.09-1.06-5.07-.71-.98-1.87-1.48-3.48-1.48-1.26,0-2.37.31-3.33.92-.96.61-2.06,1.5-3.28,2.68v20.24h-6.79Z"/><path class="cls-1" d="M415.88,85.08c-1.69,0-3.12-.26-4.28-.77-1.16-.51-2.11-1.23-2.83-2.15-.73-.92-1.26-2.03-1.59-3.3-.33-1.28-.5-2.7-.5-4.28v-13.81h-4.13v-5.07l4.48-.29.83-7.91h5.67v7.91h7.38v5.37h-7.38v13.81c0,3.38,1.36,5.07,4.07,5.07.51,0,1.03-.06,1.56-.18s1.01-.28,1.45-.47l1.18,5.02c-.79.28-1.68.52-2.68.74-1,.22-2.08.32-3.22.32Z"/><path class="cls-1" d="M428.92,50.33c-1.22,0-2.22-.35-3.01-1.06-.79-.71-1.18-1.63-1.18-2.77s.39-2.07,1.18-2.8c.79-.73,1.79-1.09,3.01-1.09s2.22.36,3.01,1.09c.79.73,1.18,1.66,1.18,2.8s-.39,2.07-1.18,2.77-1.79,1.06-3.01,1.06ZM425.5,84.37v-28.97h6.79v28.97h-6.79Z"/><path class="cls-1" d="M439.48,84.37v-28.97h5.61l.47,3.89h.24c1.3-1.26,2.7-2.34,4.22-3.25,1.51-.9,3.28-1.36,5.28-1.36,3.11,0,5.37.99,6.79,2.98,1.42,1.99,2.12,4.83,2.12,8.53v18.17h-6.79v-17.29c0-2.4-.35-4.09-1.06-5.07-.71-.98-1.87-1.48-3.48-1.48-1.26,0-2.37.31-3.33.92-.96.61-2.06,1.5-3.28,2.68v20.24h-6.79Z"/><path class="cls-1" d="M478.07,85.08c-2.56,0-4.62-.78-6.2-2.33-1.57-1.55-2.36-3.61-2.36-6.17,0-1.53.32-2.9.97-4.1.65-1.2,1.67-2.23,3.07-3.1,1.4-.86,3.17-1.59,5.31-2.18,2.14-.59,4.71-1.04,7.7-1.36-.04-.75-.15-1.46-.32-2.15-.18-.69-.47-1.3-.89-1.83-.41-.53-.95-.94-1.62-1.24s-1.5-.44-2.48-.44c-1.42,0-2.8.28-4.16.83-1.36.55-2.69,1.22-3.98,2.01l-2.48-4.54c1.61-1.02,3.42-1.91,5.43-2.66,2.01-.75,4.17-1.12,6.49-1.12,3.62,0,6.32,1.07,8.11,3.22,1.79,2.14,2.69,5.24,2.69,9.29v17.17h-5.61l-.47-3.19h-.24c-1.3,1.1-2.68,2.03-4.16,2.77-1.47.75-3.08,1.12-4.81,1.12ZM480.26,79.77c1.18,0,2.25-.28,3.22-.83.96-.55,2-1.34,3.1-2.36v-6.49c-1.97.24-3.62.55-4.96.94-1.34.39-2.42.84-3.25,1.33-.83.49-1.42,1.05-1.77,1.68-.35.63-.53,1.3-.53,2.01,0,1.3.39,2.24,1.18,2.83.79.59,1.79.89,3.01.89Z"/></svg>
