<?xml version="1.0" encoding="utf-8"?>
<!-- Generator: Adobe Illustrator 26.2.1, SVG Export Plug-In . SVG Version: 6.00 Build 0)  -->
<svg version="1.1" xmlns="http://www.w3.org/2000/svg" xmlns:xlink="http://www.w3.org/1999/xlink" x="0px" y="0px"
	 viewBox="0 0 98.7 67.1" style="enable-background:new 0 0 98.7 67.1;" xml:space="preserve">
<style type="text/css">
	.st0{fill:#006CB7;}
	.st1{fill:#003255;}
	.st2{fill:#231F20;}
</style>
<g id="Layer_2">
	<path class="st0" d="M62.8,53c-3,0.7-6.2,1.2-9.5,1.5c-1.7,0.1-3.5,0.2-5.2,0.2c-4.2,0-8.2-0.4-12-1.1c1.8,0.1,3.6,0.2,5.5,0.2
		c1.7,0,3.5-0.1,5.1-0.2c3.5-0.3,6.9-0.8,10.1-1.6c16-3.8,27.3-13.5,27.3-24.8c0-10.8-10.4-20.2-25.3-24.3c-2.7-0.7-5.5-1.3-8.4-1.7
		c-1.6-0.2-3.2-0.4-4.9-0.5c0.9,0,1.8-0.1,2.6-0.1c1.8,0,3.5,0.1,5.2,0.2c3.2,0.3,6.4,0.8,9.4,1.5c16,3.8,27.4,13.7,27.4,25.3
		C90.1,39.3,78.8,49.2,62.8,53"/>
	<g>
		<path class="st1" d="M20,37.9c-0.2,0-0.4-0.1-0.6-0.2c-0.2-0.2-0.2-0.3-0.2-0.6V20.4c0-0.2,0.1-0.4,0.2-0.6
			c0.2-0.2,0.3-0.2,0.6-0.2h1.7c0.2,0,0.4,0.1,0.6,0.2c0.1,0.2,0.2,0.3,0.2,0.6v16.7c0,0.2-0.1,0.4-0.2,0.6
			c-0.1,0.2-0.3,0.2-0.6,0.2H20z"/>
		<path class="st1" d="M27,37.9c-0.2,0-0.4-0.1-0.6-0.2c-0.2-0.2-0.2-0.3-0.2-0.6V20.4c0-0.2,0.1-0.4,0.2-0.6
			c0.2-0.2,0.3-0.2,0.6-0.2h1.6c0.2,0,0.4,0.1,0.6,0.2c0.2,0.2,0.2,0.3,0.2,0.6v1.2c0.5-0.7,1.2-1.3,2-1.7c0.8-0.4,1.8-0.7,3-0.7
			c2.7,0,4.5,1.1,5.6,3.2c0.5-1,1.3-1.8,2.4-2.4c1-0.6,2.2-0.9,3.5-0.9c1.2,0,2.3,0.3,3.3,0.8c1,0.6,1.8,1.4,2.4,2.6
			c0.6,1.1,0.9,2.6,0.9,4.3v10.2c0,0.2-0.1,0.4-0.2,0.6c-0.2,0.2-0.3,0.2-0.6,0.2H50c-0.2,0-0.4-0.1-0.6-0.2
			c-0.2-0.2-0.2-0.3-0.2-0.6v-9.9c0-1.3-0.2-2.3-0.6-3.1c-0.4-0.8-0.9-1.3-1.5-1.6c-0.6-0.3-1.3-0.5-2.1-0.5c-0.6,0-1.2,0.2-1.9,0.5
			c-0.6,0.3-1.2,0.8-1.6,1.6S41,25.9,41,27.2v9.9c0,0.2-0.1,0.4-0.2,0.6c-0.2,0.2-0.3,0.2-0.6,0.2h-1.7c-0.2,0-0.4-0.1-0.6-0.2
			c-0.2-0.2-0.2-0.3-0.2-0.6v-9.9c0-1.3-0.2-2.3-0.6-3.1c-0.4-0.8-0.9-1.3-1.5-1.6c-0.6-0.3-1.3-0.5-2-0.5c-0.6,0-1.2,0.2-1.9,0.5
			c-0.6,0.3-1.2,0.8-1.6,1.6c-0.4,0.8-0.6,1.8-0.6,3.1v9.9c0,0.2-0.1,0.4-0.2,0.6c-0.2,0.2-0.3,0.2-0.6,0.2H27z"/>
		<path class="st1" d="M63.2,38.3c-1.7,0-3.1-0.3-4.3-1c-1.2-0.6-2.1-1.6-2.8-2.8c-0.7-1.2-1-2.7-1.1-4.3c0-0.4,0-0.8,0-1.4
			c0-0.6,0-1.1,0-1.4c0-1.7,0.4-3.1,1.1-4.3c0.7-1.2,1.6-2.1,2.8-2.8c1.2-0.6,2.6-1,4.3-1c1.4,0,2.5,0.2,3.5,0.6
			c1,0.4,1.8,0.9,2.4,1.4c0.6,0.6,1.1,1.2,1.4,1.9c0.3,0.7,0.5,1.3,0.5,1.9c0,0.2,0,0.4-0.2,0.6c-0.2,0.1-0.4,0.2-0.6,0.2h-1.7
			c-0.2,0-0.4-0.1-0.5-0.2c-0.1-0.1-0.2-0.3-0.4-0.5c-0.4-1.2-1-2-1.7-2.4c-0.7-0.5-1.6-0.7-2.7-0.7c-1.4,0-2.6,0.4-3.4,1.3
			c-0.9,0.9-1.4,2.3-1.4,4.2c0,0.8,0,1.7,0,2.5c0.1,1.9,0.5,3.4,1.4,4.2c0.9,0.9,2,1.3,3.4,1.3c1.1,0,2-0.2,2.7-0.7
			c0.7-0.5,1.3-1.3,1.7-2.4c0.1-0.3,0.2-0.4,0.4-0.5c0.1-0.1,0.3-0.2,0.5-0.2h1.7c0.2,0,0.4,0.1,0.6,0.2c0.2,0.1,0.2,0.3,0.2,0.6
			c0,0.5-0.1,1-0.3,1.5c-0.2,0.5-0.5,1-0.9,1.6c-0.4,0.5-0.9,1-1.5,1.4c-0.6,0.4-1.3,0.7-2.2,1C65.2,38.1,64.3,38.3,63.2,38.3z"/>
		<path class="st1" d="M20.8,11.7c-1.3,0-2.3,1-2.3,2.3c0,1.3,1,2.3,2.3,2.3c1.3,0,2.3-1,2.3-2.3C23.1,12.8,22.1,11.7,20.8,11.7z"/>
	</g>
	<path class="st2" d="M94.7,65.1c-0.8,0-0.9-0.6-0.8-1.3c0-0.1,0-0.2,0.1-0.4c0.2-0.7,0.6-1.3,1.4-1.3c0.8,0,1,0.6,0.9,1.2
		c0,0.1-0.1,0.4-0.1,0.5C96,64.5,95.5,65.1,94.7,65.1 M94.7,65.5c0.6,0,0.9-0.2,1.2-0.5l-0.1,0.3c0,0.1,0,0.2,0.1,0.2h0.1
		c0.1,0,0.2-0.1,0.2-0.2l1-4.6c0-0.1,0-0.2-0.1-0.2H97c-0.1,0-0.2,0.1-0.2,0.2l-0.4,1.6c-0.2-0.3-0.5-0.5-1.1-0.5
		c-1.1,0-1.6,0.9-1.8,1.7c0,0.1-0.1,0.2-0.1,0.4C93.4,64.6,93.7,65.5,94.7,65.5 M89.5,65.4h0.1c0.1,0,0.2-0.1,0.2-0.2l0.4-1.9
		c0.2-0.7,0.7-1.2,1.4-1.2c0.8,0,0.9,0.4,0.7,1.2l-0.4,1.9c0,0.1,0,0.2,0.1,0.2h0.1c0.1,0,0.2-0.1,0.2-0.2l0.4-2
		c0.2-0.9-0.1-1.6-1.1-1.6c-0.5,0-0.9,0.2-1.2,0.5l0.1-0.3c0-0.1,0-0.2-0.1-0.2h-0.1c-0.1,0-0.2,0.1-0.2,0.2l-0.7,3.3
		C89.3,65.4,89.4,65.4,89.5,65.4 M86.7,65.1c-0.8,0-0.8-0.6-0.7-1.3c0-0.1,0-0.2,0.1-0.4c0.2-0.7,0.6-1.3,1.4-1.3
		c0.8,0,0.9,0.6,0.8,1.2c0,0.1-0.1,0.4-0.1,0.5C87.9,64.5,87.4,65.1,86.7,65.1 M86.7,65.5c0.6,0,0.9-0.2,1.2-0.5l-0.1,0.3
		c0,0.1,0,0.2,0.1,0.2H88c0.1,0,0.2-0.1,0.2-0.2l0.7-3.3c0-0.1,0-0.2-0.1-0.2h-0.1c-0.1,0-0.2,0.1-0.2,0.2l-0.1,0.3
		c-0.2-0.3-0.4-0.5-1-0.5c-1.1,0-1.6,0.9-1.8,1.7c0,0.1-0.1,0.2-0.1,0.4C85.4,64.6,85.6,65.5,86.7,65.5 M83.1,65.4h0.1
		c0.1,0,0.2-0.1,0.2-0.2l0.5-2.2c0.1-0.6,0.5-0.9,1.1-0.9h0.3c0.1,0,0.2-0.1,0.2-0.2l0-0.1c0-0.1,0-0.2-0.1-0.2h-0.3
		c-0.5,0-0.8,0.2-1,0.5l0.1-0.3c0-0.1,0-0.2-0.1-0.2h-0.1c-0.1,0-0.2,0.1-0.2,0.2l-0.7,3.3C82.9,65.4,83,65.4,83.1,65.4 M79,65
		l0.4-1.9h1.5c0.8,0,1,0.4,0.9,1c-0.1,0.6-0.6,1-1.3,1H79z M79.5,62.7l0.4-1.7h1.5c0.7,0,0.9,0.3,0.8,0.8c-0.1,0.5-0.6,0.9-1.3,0.9
		H79.5z M78.6,65.4h1.9c1.1,0,1.6-0.7,1.7-1.4c0.1-0.6-0.1-1-0.5-1.2c0.3-0.1,0.7-0.4,0.8-1.1c0.1-0.7-0.3-1.2-1.1-1.2h-1.8
		c-0.1,0-0.2,0.1-0.2,0.2l-1,4.5C78.5,65.4,78.5,65.4,78.6,65.4 M74.3,65.5c0.9,0,1.5-0.5,1.6-1c0.1-0.5-0.1-0.8-1-1
		c-0.8-0.2-1-0.4-0.9-0.7c0.1-0.3,0.4-0.6,1-0.6s0.7,0.2,0.8,0.4c0,0.1,0.1,0.1,0.1,0.1H76c0.1,0,0.2-0.1,0.2-0.2
		c0-0.2-0.2-0.8-1.1-0.8c-0.8,0-1.4,0.5-1.5,1c-0.1,0.5,0,0.8,0.9,1c0.8,0.2,1.1,0.3,1,0.7c-0.1,0.4-0.5,0.6-1.1,0.6
		c-0.6,0-0.7-0.2-0.9-0.5c0-0.1-0.1-0.1-0.1-0.1h-0.1c-0.1,0-0.2,0-0.2,0.2C73.1,64.9,73.4,65.5,74.3,65.5 M69.2,65.4h0.1
		c0.1,0,0.2-0.1,0.2-0.2l0.4-1.9c0.2-0.7,0.7-1.2,1.4-1.2c0.8,0,0.9,0.4,0.7,1.2l-0.4,1.9c0,0.1,0,0.2,0.1,0.2h0.1
		c0.1,0,0.2-0.1,0.2-0.2l0.4-2c0.2-0.9-0.1-1.6-1.1-1.6c-0.5,0-0.9,0.2-1.2,0.5l0.1-0.3c0-0.1,0-0.2-0.1-0.2h-0.1
		c-0.1,0-0.2,0.1-0.2,0.2L69,65.3C69,65.4,69.1,65.4,69.2,65.4 M66.5,65.1c-0.7,0-1-0.4-0.8-1.2c0-0.1,0.1-0.4,0.1-0.5
		c0.2-0.8,0.8-1.2,1.4-1.2c0.7,0,1,0.4,0.8,1.2c0,0.1-0.1,0.4-0.1,0.5C67.8,64.7,67.2,65.1,66.5,65.1 M66.5,65.5
		c1,0,1.6-0.7,1.8-1.6c0-0.1,0.1-0.4,0.1-0.6c0.2-0.9-0.3-1.6-1.2-1.6c-1,0-1.6,0.7-1.8,1.6c0,0.1-0.1,0.4-0.1,0.6
		C65.1,64.8,65.6,65.5,66.5,65.5 M63.8,65.4h0.1c0.1,0,0.2-0.1,0.2-0.2l0.7-3.3c0-0.1,0-0.2-0.1-0.2h-0.1c-0.1,0-0.2,0.1-0.2,0.2
		l-0.7,3.3C63.6,65.4,63.7,65.4,63.8,65.4 M64.6,61.1h0.3c0.1,0,0.2-0.1,0.2-0.2l0.1-0.3c0-0.1,0-0.2-0.1-0.2h-0.3
		c-0.1,0-0.2,0.1-0.2,0.2l-0.1,0.3C64.5,61,64.5,61.1,64.6,61.1 M62.4,65.4h0.3c0.1,0,0.2-0.1,0.2-0.2l0-0.1c0-0.1,0-0.2-0.1-0.2
		h-0.4c-0.5,0-0.5-0.3-0.3-0.8l0.4-2h0.9c0.1,0,0.2-0.1,0.2-0.2l0-0.1c0-0.1,0-0.2-0.1-0.2h-0.9l0.2-1.2c0-0.1,0-0.2-0.1-0.2h-0.1
		c-0.1,0-0.2,0.1-0.2,0.2l-0.2,1.2h-0.5c-0.1,0-0.2,0.1-0.2,0.2l0,0.1c0,0.1,0,0.2,0.1,0.2h0.5l-0.4,2
		C61.5,64.9,61.5,65.4,62.4,65.4 M58.5,65.5c0.6,0,0.9-0.2,1.2-0.5l-0.1,0.3c0,0.1,0,0.2,0.1,0.2h0.1c0.1,0,0.2-0.1,0.2-0.2l0.7-3.3
		c0-0.1,0-0.2-0.1-0.2h-0.1c-0.1,0-0.2,0.1-0.2,0.2l-0.4,1.9c-0.2,0.7-0.7,1.2-1.4,1.2c-0.8,0-0.9-0.4-0.7-1.2l0.4-1.9
		c0-0.1,0-0.2-0.1-0.2H58c-0.1,0-0.2,0.1-0.2,0.2l-0.4,2C57.2,64.8,57.4,65.5,58.5,65.5 M55.7,65.4h0.1c0.1,0,0.2-0.1,0.2-0.2l1-4.6
		c0-0.1,0-0.2-0.1-0.2h-0.1c-0.1,0-0.2,0.1-0.2,0.2l-1,4.6C55.5,65.4,55.6,65.4,55.7,65.4 M53.1,65.1c-0.7,0-1-0.4-0.8-1.2
		c0-0.1,0.1-0.4,0.1-0.5c0.2-0.8,0.8-1.2,1.4-1.2c0.7,0,1,0.4,0.8,1.2c0,0.1-0.1,0.4-0.1,0.5C54.3,64.7,53.7,65.1,53.1,65.1
		 M53.1,65.5c1,0,1.6-0.7,1.8-1.6c0-0.1,0.1-0.4,0.1-0.6c0.2-0.9-0.3-1.6-1.2-1.6c-1,0-1.6,0.7-1.8,1.6c0,0.1-0.1,0.4-0.1,0.6
		C51.7,64.8,52.1,65.5,53.1,65.5 M49.1,65.5c1.1,0,1.8-0.4,2-1.3c0.2-0.8-0.3-1.1-1.2-1.4c-0.9-0.3-1.3-0.5-1.2-1.1
		c0.1-0.6,0.7-0.8,1.4-0.8c0.6,0,1,0.3,1,0.8c0,0.1,0.1,0.1,0.1,0.1h0.2c0.1,0,0.1-0.1,0.1-0.1c0.1-0.5-0.3-1.2-1.4-1.2
		c-1,0-1.7,0.5-1.8,1.2c-0.2,0.8,0.2,1.1,1.1,1.4c1,0.3,1.4,0.5,1.3,1.1c-0.1,0.6-0.6,0.9-1.5,0.9c-0.8,0-1.1-0.4-1.1-0.8
		c0-0.1,0-0.1-0.1-0.1h-0.2c-0.1,0-0.1,0.1-0.1,0.1C47.4,64.9,47.9,65.5,49.1,65.5 M41.9,65.4h0.1c0.1,0,0.2-0.1,0.2-0.1l1.4-1.4
		l0.8,1.4c0,0,0.1,0.1,0.2,0.1h0.1c0.1,0,0.2-0.1,0.1-0.2L44,63.7l1.6-1.6c0.1-0.1,0-0.2-0.1-0.2h-0.1c-0.1,0-0.2,0.1-0.2,0.1
		l-1.4,1.4L43,61.9c0,0-0.1-0.1-0.2-0.1h-0.1c-0.1,0-0.2,0.1-0.1,0.2l0.9,1.5l-1.6,1.6C41.7,65.3,41.8,65.4,41.9,65.4 M40.7,65.4
		h0.1c0.1,0,0.2-0.1,0.2-0.2l0.7-3.3c0-0.1,0-0.2-0.1-0.2h-0.1c-0.1,0-0.2,0.1-0.2,0.2l-0.7,3.3C40.5,65.4,40.6,65.4,40.7,65.4
		 M41.5,61.1h0.3c0.1,0,0.2-0.1,0.2-0.2l0.1-0.3c0-0.1,0-0.2-0.1-0.2h-0.3c-0.1,0-0.2,0.1-0.2,0.2l-0.1,0.3
		C41.4,61,41.4,61.1,41.5,61.1 M38.3,65.4h0.1c0.1,0,0.2-0.1,0.2-0.2l0.5-2.2c0.1-0.6,0.5-0.9,1.1-0.9h0.3c0.1,0,0.2-0.1,0.2-0.2
		l0-0.1c0-0.1,0-0.2-0.1-0.2h-0.3c-0.5,0-0.8,0.2-1,0.5l0.1-0.3c0-0.1,0-0.2-0.1-0.2H39c-0.1,0-0.2,0.1-0.2,0.2l-0.7,3.3
		C38.1,65.4,38.2,65.4,38.3,65.4 M36.9,65.4h0.3c0.1,0,0.2-0.1,0.2-0.2l0-0.1c0-0.1,0-0.2-0.1-0.2h-0.4c-0.5,0-0.5-0.3-0.3-0.8
		l0.4-2h0.9c0.1,0,0.2-0.1,0.2-0.2l0-0.1c0-0.1,0-0.2-0.1-0.2h-0.9l0.2-1.2c0-0.1,0-0.2-0.1-0.2h-0.1c-0.1,0-0.2,0.1-0.2,0.2
		l-0.2,1.2h-0.5c-0.1,0-0.2,0.1-0.2,0.2l0,0.1c0,0.1,0,0.2,0.1,0.2h0.5l-0.4,2C36,64.9,36,65.4,36.9,65.4 M32.7,63.4L32.7,63.4
		c0.2-0.7,0.7-1.3,1.4-1.3c0.7,0,1,0.5,0.8,1.2l0,0H32.7z M33.3,65.5c0.9,0,1.5-0.6,1.6-0.8c0-0.1,0-0.1-0.1-0.1h-0.1
		c-0.1,0-0.1,0-0.2,0.1c-0.1,0.1-0.5,0.5-1.1,0.5c-0.7,0-0.9-0.6-0.8-1.2c0,0,0-0.1,0-0.1h2.5c0.1,0,0.2-0.1,0.2-0.2l0-0.1
		c0.2-1.1-0.2-1.8-1.2-1.8c-0.9,0-1.6,0.7-1.9,1.6c0,0.1-0.1,0.4-0.1,0.6C32,64.9,32.4,65.5,33.3,65.5 M26,65.4h0.1
		c0.1,0,0.2-0.1,0.2-0.2l0.4-2c0.2-0.9,0.8-1.2,1.2-1.2c0.5,0,0.8,0.3,0.6,1.2l-0.4,1.9c0,0.1,0,0.2,0.1,0.2h0.1
		c0.1,0,0.2-0.1,0.2-0.2l0.4-1.9c0.2-0.9,0.8-1.2,1.2-1.2c0.5,0,0.8,0.3,0.6,1.2l-0.4,1.9c0,0.1,0,0.2,0.1,0.2h0.1
		c0.1,0,0.2-0.1,0.2-0.2l0.4-2c0.2-1-0.3-1.5-1-1.5c-0.5,0-1,0.3-1.2,0.7c-0.1-0.4-0.5-0.7-1-0.7c-0.5,0-0.7,0.2-1,0.5l0-0.2
		c0-0.1,0-0.2-0.1-0.2h-0.1c-0.1,0-0.2,0.1-0.2,0.2l-0.7,3.3C25.8,65.4,25.9,65.4,26,65.4 M23.3,65.1c-0.7,0-1-0.4-0.8-1.2
		c0-0.1,0.1-0.4,0.1-0.5c0.2-0.8,0.8-1.2,1.4-1.2c0.7,0,1,0.4,0.8,1.2c0,0.1-0.1,0.4-0.1,0.5C24.6,64.7,24,65.1,23.3,65.1
		 M23.3,65.5c1,0,1.6-0.7,1.8-1.6c0-0.1,0.1-0.4,0.1-0.6c0.2-0.9-0.3-1.6-1.2-1.6c-1,0-1.6,0.7-1.8,1.6c0,0.1-0.1,0.4-0.1,0.6
		C21.9,64.8,22.4,65.5,23.3,65.5 M20.6,65.4h0.1c0.1,0,0.2-0.1,0.2-0.2l0.7-3.3c0-0.1,0-0.2-0.1-0.2h-0.1c-0.1,0-0.2,0.1-0.2,0.2
		l-0.7,3.3C20.4,65.4,20.5,65.4,20.6,65.4 M21.4,61.1h0.3c0.1,0,0.2-0.1,0.2-0.2l0.1-0.3c0-0.1,0-0.2-0.1-0.2h-0.3
		c-0.1,0-0.2,0.1-0.2,0.2l-0.1,0.3C21.3,61,21.3,61.1,21.4,61.1 M16.7,65.4h0.1c0.1,0,0.2-0.1,0.2-0.1l1.4-1.4l0.8,1.4
		c0,0,0.1,0.1,0.2,0.1h0.1c0.1,0,0.2-0.1,0.1-0.2l-0.9-1.5l1.6-1.6c0.1-0.1,0-0.2-0.1-0.2h-0.1c-0.1,0-0.2,0.1-0.2,0.1l-1.4,1.4
		l-0.8-1.4c0,0-0.1-0.1-0.2-0.1h-0.1c-0.1,0-0.2,0.1-0.1,0.2l0.9,1.5l-1.6,1.6C16.5,65.3,16.5,65.4,16.7,65.4 M13.3,63.8l1.6-2.7
		l0.5,2.7H13.3z M12,65.4h0.2c0.1,0,0.1,0,0.2-0.1l0.7-1.1h2.5l0.2,1.1c0,0.1,0.1,0.1,0.2,0.1H16c0.1,0,0.2-0.1,0.1-0.2l-0.8-4.5
		c0-0.1-0.1-0.1-0.2-0.1h-0.3c-0.1,0-0.2,0-0.2,0.1l-2.7,4.5C11.9,65.3,11.9,65.4,12,65.4 M6.7,65.4h0.1c0.1,0,0.2-0.1,0.2-0.2
		l0.4-1.9c0.2-0.7,0.7-1.2,1.4-1.2c0.8,0,0.9,0.4,0.7,1.2l-0.4,1.9c0,0.1,0,0.2,0.1,0.2h0.1c0.1,0,0.2-0.1,0.2-0.2l0.4-2
		c0.2-0.9-0.1-1.6-1.1-1.6c-0.5,0-0.9,0.2-1.2,0.5L7.7,62c0-0.1,0-0.2-0.1-0.2H7.5c-0.1,0-0.2,0.1-0.2,0.2l-0.7,3.3
		C6.5,65.4,6.6,65.4,6.7,65.4 M3,63.8l1.6-2.7l0.5,2.7H3z M1.8,65.4h0.2c0.1,0,0.1,0,0.2-0.1l0.7-1.1h2.4l0.2,1.1
		c0,0.1,0.1,0.1,0.2,0.1h0.1c0.1,0,0.2-0.1,0.1-0.2l-0.8-4.5c0-0.1-0.1-0.1-0.2-0.1H4.6c-0.1,0-0.2,0-0.2,0.1l-2.7,4.5
		C1.6,65.3,1.6,65.4,1.8,65.4"/>
</g>
<g id="Layer_6">
</g>
</svg>
